HIERARCHY
ROOT Hips
{
	OFFSET 0.000000 71.427986 0.000000
	CHANNELS 6 Xposition Yposition Zposition Xrotation Yrotation Zrotation
	JOINT Pelvis
	{
		OFFSET 0.000000 0.000000 0.000000
		CHANNELS 3 Xrotation Yrotation Zrotation
		JOINT LeftUpLeg
		{
			OFFSET 6.797100 -2.508499 -1.318700
			CHANNELS 3 Xrotation Yrotation Zrotation
			JOINT LeftLeg
			{
				OFFSET 0.069008 -29.241863 0.690200
				CHANNELS 3 Xrotation Yrotation Zrotation
				JOINT LeftFoot
				{
					OFFSET -0.069008 -29.568123 -0.266800
					CHANNELS 3 Xrotation Yrotation Zrotation
					JOINT LeftToeBase
					{
						OFFSET 3.145500 -8.631000 16.059900
						CHANNELS 3 Xrotation Yrotation Zrotation
						End Site
						{
							OFFSET 0.000000 18.501587 0.000000
						}
					}
				}
			}
			JOINT Left_ShortSleeve
			{
				OFFSET 0.265923 -10.480953 1.153800
				CHANNELS 3 Xrotation Yrotation Zrotation
				End Site
				{
					OFFSET 1.725763 19.823879 0.000000
				}
			}
		}
		JOINT RightUpLeg
		{
			OFFSET -6.797100 -2.508499 -1.318700
			CHANNELS 3 Xrotation Yrotation Zrotation
			JOINT RightLeg
			{
				OFFSET -0.082453 -29.241932 0.688000
				CHANNELS 3 Xrotation Yrotation Zrotation
				JOINT RightFoot
				{
					OFFSET 0.082453 -29.568058 -0.264600
					CHANNELS 3 Xrotation Yrotation Zrotation
					JOINT RightToeBase
					{
						OFFSET -3.115300 -8.682800 16.113400
						CHANNELS 3 Xrotation Yrotation Zrotation
						End Site
						{
							OFFSET 0.000000 18.567114 0.000000
						}
					}
				}
			}
			JOINT Right_ShortSleeve
			{
				OFFSET -0.265923 -10.480953 1.153800
				CHANNELS 3 Xrotation Yrotation Zrotation
				End Site
				{
					OFFSET -1.725766 19.823910 0.000000
				}
			}
		}
	}
	JOINT Spine
	{
		OFFSET 0.000000 13.368103 0.470500
		CHANNELS 3 Xrotation Yrotation Zrotation
		JOINT Spine1
		{
			OFFSET 0.147000 13.837402 0.538800
			CHANNELS 3 Xrotation Yrotation Zrotation
			JOINT Spine2
			{
				OFFSET 0.168000 16.242897 -1.435500
				CHANNELS 3 Xrotation Yrotation Zrotation
				JOINT Neck
				{
					OFFSET 0.217200 18.631500 -1.679100
					CHANNELS 3 Xrotation Yrotation Zrotation
					JOINT Head
					{
						OFFSET 0.000000 6.599396 1.385900
						CHANNELS 3 Xrotation Yrotation Zrotation
						JOINT Hat
						{
							OFFSET -0.532200 27.220596 -10.096100
							CHANNELS 3 Xrotation Yrotation Zrotation
							End Site
							{
								OFFSET 0.000000 22.029861 0.000000
							}
						}
						JOINT HairD
						{
							OFFSET -10.777400 17.437393 -1.325900
							CHANNELS 3 Xrotation Yrotation Zrotation
							JOINT HairD1
							{
								OFFSET -3.290299 -11.051193 1.062200
								CHANNELS 3 Xrotation Yrotation Zrotation
								End Site
								{
									OFFSET 0.000000 11.579437 0.000000
								}
							}
						}
						JOINT HairB
						{
							OFFSET -10.777400 17.437393 1.467900
							CHANNELS 3 Xrotation Yrotation Zrotation
							JOINT HairB1
							{
								OFFSET -1.561200 -12.956299 3.590200
								CHANNELS 3 Xrotation Yrotation Zrotation
								End Site
								{
									OFFSET 0.000000 13.534866 0.000000
								}
							}
						}
						JOINT HairA
						{
							OFFSET 9.713100 17.437393 1.467900
							CHANNELS 3 Xrotation Yrotation Zrotation
							JOINT HairA1
							{
								OFFSET 1.561200 -12.956299 3.590200
								CHANNELS 3 Xrotation Yrotation Zrotation
								End Site
								{
									OFFSET 0.000000 13.534866 0.000000
								}
							}
						}
						JOINT HairC
						{
							OFFSET 9.713100 17.437393 -1.325900
							CHANNELS 3 Xrotation Yrotation Zrotation
							JOINT HairC1
							{
								OFFSET 3.290300 -11.051193 1.062200
								CHANNELS 3 Xrotation Yrotation Zrotation
								End Site
								{
									OFFSET 0.000000 11.579437 0.000000
								}
							}
						}
					}
				}
				JOINT LeftShoulder
				{
					OFFSET 5.101800 15.108002 -2.763700
					CHANNELS 3 Xrotation Yrotation Zrotation
					JOINT LeftArm
					{
						OFFSET 9.825497 2.506317 -1.597400
						CHANNELS 3 Xrotation Yrotation Zrotation
						JOINT LeftForeArm
						{
							OFFSET 21.966244 0.000000 0.000000
							CHANNELS 3 Xrotation Yrotation Zrotation
							JOINT LeftHand
							{
								OFFSET 33.879036 0.000000 0.000000
								CHANNELS 3 Xrotation Yrotation Zrotation
								JOINT LeftHandThumb1
								{
									OFFSET 6.715286 -2.359680 3.363841
									CHANNELS 3 Xrotation Yrotation Zrotation
									JOINT LeftHandThumb2
									{
										OFFSET 2.507072 -1.447464 1.447461
										CHANNELS 3 Xrotation Yrotation Zrotation
										JOINT LeftHandThumb3
										{
											OFFSET 2.898338 -1.673355 1.673357
											CHANNELS 3 Xrotation Yrotation Zrotation
											End Site
											{
												OFFSET -0.295959 3.727692 -0.131651
											}
										}
									}
								}
								JOINT LeftHandIndex1
								{
									OFFSET 14.190811 -0.254547 3.840278
									CHANNELS 3 Xrotation Yrotation Zrotation
									JOINT LeftHandIndex2
									{
										OFFSET 3.551727 0.000000 -0.000000
										CHANNELS 3 Xrotation Yrotation Zrotation
										JOINT LeftHandIndex3
										{
											OFFSET 2.894196 0.000000 0.000000
											CHANNELS 3 Xrotation Yrotation Zrotation
											End Site
											{
												OFFSET -1.000603 2.690872 0.366626
											}
										}
									}
								}
								JOINT LeftHandMiddle1
								{
									OFFSET 13.776489 0.000000 0.000000
									CHANNELS 3 Xrotation Yrotation Zrotation
									JOINT LeftHandMiddle2
									{
										OFFSET 3.438232 0.000000 0.000000
										CHANNELS 3 Xrotation Yrotation Zrotation
										JOINT LeftHandMiddle3
										{
											OFFSET 3.691551 0.000000 0.000000
											CHANNELS 3 Xrotation Yrotation Zrotation
											End Site
											{
												OFFSET -1.082298 3.499527 0.457670
											}
										}
									}
								}
								JOINT LeftHandRing1
								{
									OFFSET 13.966164 -0.268127 -3.067488
									CHANNELS 3 Xrotation Yrotation Zrotation
									JOINT LeftHandRing2
									{
										OFFSET 3.162567 0.000000 0.000000
										CHANNELS 3 Xrotation Yrotation Zrotation
										JOINT LeftHandRing3
										{
											OFFSET 3.324348 0.000000 0.000000
											CHANNELS 3 Xrotation Yrotation Zrotation
											End Site
											{
												OFFSET -0.861900 3.184998 0.405154
											}
										}
									}
								}
								JOINT LeftHandPinky1
								{
									OFFSET 13.131393 -0.168503 -5.746925
									CHANNELS 3 Xrotation Yrotation Zrotation
									JOINT LeftHandPinky2
									{
										OFFSET 2.849182 0.000000 0.000000
										CHANNELS 3 Xrotation Yrotation Zrotation
										JOINT LeftHandPinky3
										{
											OFFSET 2.805038 0.000000 0.000000
											CHANNELS 3 Xrotation Yrotation Zrotation
											End Site
											{
												OFFSET -0.882500 2.642609 0.325652
											}
										}
									}
								}
							}
							JOINT Left_Sleeve
							{
								OFFSET 6.592125 -0.646545 0.805568
								CHANNELS 3 Xrotation Yrotation Zrotation
								End Site
								{
									OFFSET -0.000179 20.275787 -0.000000
								}
							}
						}
					}
				}
				JOINT RightShoulder
				{
					OFFSET -5.731700 15.108002 -2.763700
					CHANNELS 3 Xrotation Yrotation Zrotation
					JOINT RightArm
					{
						OFFSET -9.825497 2.506317 -1.597400
						CHANNELS 3 Xrotation Yrotation Zrotation
						JOINT RightForeArm
						{
							OFFSET -21.966242 0.000000 0.000000
							CHANNELS 3 Xrotation Yrotation Zrotation
							JOINT RightHand
							{
								OFFSET -33.879032 0.000000 0.000000
								CHANNELS 3 Xrotation Yrotation Zrotation
								JOINT RightHandThumb1
								{
									OFFSET -6.715286 -2.359680 3.363841
									CHANNELS 3 Xrotation Yrotation Zrotation
									JOINT RightHandThumb2
									{
										OFFSET -2.507072 -1.447464 1.447461
										CHANNELS 3 Xrotation Yrotation Zrotation
										JOINT RightHandThumb3
										{
											OFFSET -2.898338 -1.673355 1.673357
											CHANNELS 3 Xrotation Yrotation Zrotation
											End Site
											{
												OFFSET 0.295959 3.727692 -0.131651
											}
										}
									}
								}
								JOINT RightHandIndex1
								{
									OFFSET -14.190811 -0.254547 3.840278
									CHANNELS 3 Xrotation Yrotation Zrotation
									JOINT RightHandIndex2
									{
										OFFSET -3.551727 0.000000 -0.000000
										CHANNELS 3 Xrotation Yrotation Zrotation
										JOINT RightHandIndex3
										{
											OFFSET -2.894196 0.000000 0.000000
											CHANNELS 3 Xrotation Yrotation Zrotation
											End Site
											{
												OFFSET 1.000603 2.690872 0.366626
											}
										}
									}
								}
								JOINT RightHandMiddle1
								{
									OFFSET -13.776489 0.000000 0.000000
									CHANNELS 3 Xrotation Yrotation Zrotation
									JOINT RightHandMiddle2
									{
										OFFSET -3.438232 0.000000 0.000000
										CHANNELS 3 Xrotation Yrotation Zrotation
										JOINT RightHandMiddle3
										{
											OFFSET -3.691551 0.000000 0.000000
											CHANNELS 3 Xrotation Yrotation Zrotation
											End Site
											{
												OFFSET 1.082298 3.499527 0.457670
											}
										}
									}
								}
								JOINT RightHandRing1
								{
									OFFSET -13.966164 -0.268127 -3.067488
									CHANNELS 3 Xrotation Yrotation Zrotation
									JOINT RightHandRing2
									{
										OFFSET -3.162567 0.000000 0.000000
										CHANNELS 3 Xrotation Yrotation Zrotation
										JOINT RightHandRing3
										{
											OFFSET -3.324348 0.000000 0.000000
											CHANNELS 3 Xrotation Yrotation Zrotation
											End Site
											{
												OFFSET 0.861900 3.184998 0.405154
											}
										}
									}
								}
								JOINT RightHandPinky1
								{
									OFFSET -13.131393 -0.168503 -5.746925
									CHANNELS 3 Xrotation Yrotation Zrotation
									JOINT RightHandPinky2
									{
										OFFSET -2.849182 0.000000 0.000000
										CHANNELS 3 Xrotation Yrotation Zrotation
										JOINT RightHandPinky3
										{
											OFFSET -2.805038 0.000000 0.000000
											CHANNELS 3 Xrotation Yrotation Zrotation
											End Site
											{
												OFFSET 0.882500 2.642609 0.325652
											}
										}
									}
								}
							}
							JOINT Right_Sleeve
							{
								OFFSET -6.592125 -0.646545 0.805568
								CHANNELS 3 Xrotation Yrotation Zrotation
								End Site
								{
									OFFSET 0.000179 20.275787 -0.000000
								}
							}
						}
					}
				}
				JOINT Bind_Right_JacketString
				{
					OFFSET -3.534800 11.969597 7.200700
					CHANNELS 3 Xrotation Yrotation Zrotation
					JOINT Bind_Right_JacketString1
					{
						OFFSET -0.319900 -6.102600 2.794100
						CHANNELS 3 Xrotation Yrotation Zrotation
						End Site
						{
							OFFSET 0.000000 6.719452 0.000000
						}
					}
				}
				JOINT Bind_Left_JacketString
				{
					OFFSET 2.904800 11.969597 7.200700
					CHANNELS 3 Xrotation Yrotation Zrotation
					JOINT Bind_Left_JacketString1
					{
						OFFSET 0.364800 -5.904503 3.186800
						CHANNELS 3 Xrotation Yrotation Zrotation
						End Site
						{
							OFFSET 0.000000 6.719513 0.000000
						}
					}
				}
				JOINT HairE
				{
					OFFSET 5.915200 17.612701 -11.592200
					CHANNELS 3 Xrotation Yrotation Zrotation
					JOINT HairE1
					{
						OFFSET 0.289200 -7.171898 -1.284500
						CHANNELS 3 Xrotation Yrotation Zrotation
						End Site
						{
							OFFSET 0.000000 7.291756 0.000000
						}
					}
				}
				JOINT HairF
				{
					OFFSET -0.864800 17.612701 -11.592200
					CHANNELS 3 Xrotation Yrotation Zrotation
					JOINT HairF1
					{
						OFFSET 0.000000 -14.087097 -2.127501
						CHANNELS 3 Xrotation Yrotation Zrotation
						End Site
						{
							OFFSET 0.000000 14.246841 0.000000
						}
					}
				}
				JOINT HairG
				{
					OFFSET -8.087700 17.612701 -11.592200
					CHANNELS 3 Xrotation Yrotation Zrotation
					JOINT HairG1
					{
						OFFSET -0.293600 -6.081398 -0.910100
						CHANNELS 3 Xrotation Yrotation Zrotation
						End Site
						{
							OFFSET 0.000000 6.156120 0.000000
						}
					}
				}
			}
		}
	}
	JOINT Pouch
	{
		OFFSET 0.000000 4.394501 10.847300
		CHANNELS 3 Xrotation Yrotation Zrotation
		End Site
		{
			OFFSET 0.000000 21.880577 0.000000
		}
	}
	JOINT Bag
	{
		OFFSET -13.229000 4.813004 -0.593300
		CHANNELS 3 Xrotation Yrotation Zrotation
		End Site
		{
			OFFSET 0.000000 21.880577 0.000000
		}
	}
	JOINT OccupyGuyFacialAnim_Joint
	{
		OFFSET 1.000000 -70.206398 -1.655000
		CHANNELS 3 Xrotation Yrotation Zrotation
		End Site
		{
			OFFSET 0.000000 21.880577 0.000000
		}
	}
}
MOTION
Frames: 4
Frame Time: 0.033333
2.026059 70.585182 -2.793714 0.785460 -17.821575 -1.637854 -0.000000 -0.000001 0.000000 -14.706640 14.912499 7.285051 12.465721 9.461754 5.370068 1.792920 5.846637 -7.019692 -0.000000 -0.000001 0.000000 -0.000000 -0.000000 -0.000000 -11.435361 -8.047235 -0.225289 15.094715 0.358988 -1.024525 -5.253208 -1.439838 1.701742 -0.000000 0.000000 0.000000 -0.000000 -0.000000 -0.000001 11.721165 1.436281 -1.942647 4.517224 0.370675 1.818508 4.496599 0.370739 1.822846 7.871960 0.803098 -0.078468 -9.766999 -4.792754 -0.029882 0.000001 -0.000000 -0.000000 0.000001 -0.000000 -0.000000 0.000001 -0.000000 -0.000000 0.000001 -0.000000 0.000000 -0.000001 -0.000000 -0.000000 0.000001 -0.000000 0.000000 -0.000001 -0.000000 -0.000000 0.000001 -0.000000 -0.000000 0.000001 -0.000000 -0.000000 0.177830 -21.555906 -13.862665 4.563184 -25.719251 -60.700328 -0.000001 -3.570244 0.000002 -35.986252 -0.052325 -7.984536 -10.993113 -0.770822 4.769377 11.230385 29.162319 17.772873 -0.000001 -0.000001 -0.000002 0.085240 -0.569386 -11.376221 0.396053 2.119297 -21.168578 -0.000000 -0.000002 -0.000000 -0.039066 3.073407 -19.484738 0.397202 2.122241 -21.199396 0.000002 0.000000 -0.000005 0.239320 4.032441 -24.927575 0.537162 2.452473 -24.705125 -0.000002 0.000002 -0.000002 1.112981 5.902507 -30.933111 0.397142 2.122114 -21.197910 0.000003 -0.000004 0.000000 -0.000000 0.000000 0.000000 1.159910 19.604187 13.524660 11.752272 36.867459 49.365305 0.000004 11.858405 0.000004 -37.511290 0.718817 1.208659 -5.297714 1.863618 -7.920217 14.336419 -15.623144 -13.798107 -0.000000 -0.000002 -0.000003 0.095208 0.900914 11.302256 0.200704 -1.353821 16.864543 -0.000001 -0.000001 0.000000 -0.132898 -2.167890 14.450469 0.201285 -1.355739 16.889116 0.000000 -0.000001 0.000003 -0.029615 -2.455733 12.711511 0.290996 -1.621993 20.340800 -0.000001 -0.000001 -0.000001 0.383371 -4.125359 16.167785 0.131758 -1.101073 13.646687 0.000000 0.000001 -0.000003 -0.000003 0.000000 -0.000000 -0.000001 0.000003 -0.000001 0.000001 0.000001 -0.000000 -0.000001 0.000003 -0.000001 -0.000001 0.000003 -0.000001 -0.000001 0.000003 -0.000001 0.000001 0.000001 -0.000000 -0.000001 0.000003 -0.000001 -0.000001 0.000003 -0.000001 -0.000001 0.000003 -0.000001 0.000001 0.000001 -0.000000 -0.000000 -0.000001 0.000000 -0.000000 -0.000001 0.000000 -0.000000 -0.000001 0.000000 
2.110941 70.622665 -2.512803 0.166472 -17.594420 -1.661154 0.000000 0.000001 -0.000000 -13.843042 15.059689 6.879544 12.535036 9.075034 5.515949 1.521199 6.003667 -7.055068 -0.000000 0.000000 -0.000000 0.000000 -0.000000 -0.000000 -10.624050 -8.191418 -0.595031 15.160484 0.497283 -1.017833 -5.519262 -1.443361 1.894062 0.000000 -0.000002 -0.000000 -0.000001 -0.000000 -0.000000 11.182333 1.224687 -1.949136 4.266703 0.320115 1.803047 4.245516 0.325564 1.806767 7.860446 0.838750 -0.158781 -9.984140 -4.754348 -0.375340 -0.000001 -0.000001 0.000001 -0.000001 -0.000001 0.000001 -0.000001 -0.000001 0.000000 -0.000001 -0.000001 0.000001 -0.000001 -0.000003 0.000001 -0.000001 -0.000001 0.000001 -0.000001 -0.000003 0.000001 -0.000001 -0.000001 0.000001 -0.000001 -0.000001 0.000001 0.200065 -21.387078 -13.886798 4.395661 -25.423646 -61.049337 0.000008 -3.185689 -0.000011 -35.556363 -0.031743 -7.930505 -10.880912 -1.124889 4.640215 11.124700 29.773040 17.917029 0.000000 -0.000003 0.000002 0.097771 -0.511269 -11.998686 0.419429 2.178616 -21.791589 -0.000000 -0.000001 -0.000002 -0.030956 3.138231 -20.106947 0.420603 2.181572 -21.822757 0.000003 0.000002 0.000001 0.257877 4.094183 -25.550880 0.564154 2.510261 -25.328546 -0.000002 0.000002 0.000005 1.146440 5.958074 -31.558578 0.420527 2.181415 -21.820924 -0.000000 -0.000001 0.000001 0.000002 -0.000001 0.000000 1.138778 19.344525 13.668573 11.650125 36.617488 49.914541 -0.000004 11.846737 0.000014 -37.697542 0.608018 1.472934 -4.835756 1.835229 -6.965321 14.331262 -15.642313 -13.794697 -0.000001 -0.000001 0.000002 0.091992 0.916831 11.096588 0.199094 -1.348496 16.796231 -0.000000 0.000001 0.000002 -0.132760 -2.162119 14.382230 0.199674 -1.350415 16.820794 0.000003 -0.000001 -0.000001 -0.029175 -2.467450 12.853004 0.289261 -1.617304 20.279400 -0.000001 -0.000001 0.000001 0.390281 -4.141476 16.381517 0.132313 -1.103368 13.675634 0.000001 0.000000 -0.000001 -0.000000 -0.000000 -0.000000 0.000000 -0.000001 -0.000000 0.000000 -0.000001 0.000001 0.000000 -0.000001 -0.000000 0.000000 -0.000001 -0.000000 0.000000 -0.000001 -0.000000 0.000000 -0.000001 0.000000 0.000000 -0.000001 -0.000000 0.000000 -0.000001 -0.000000 0.000000 -0.000001 -0.000000 0.000000 -0.000001 0.000000 0.000000 0.000001 -0.000000 0.000000 0.000001 -0.000000 0.000000 0.000001 -0.000000 
2.156719 70.658913 -2.196649 -0.447770 -17.173121 -1.680142 0.000000 -0.000001 0.000000 -12.896257 15.251152 6.474766 12.428006 8.879488 5.655143 1.256603 5.823892 -7.051034 0.000000 0.000001 -0.000000 -0.000000 0.000000 0.000000 -9.742728 -8.271625 -0.851761 15.233574 0.365011 -1.168148 -5.857595 -1.451473 2.169611 0.000000 0.000000 -0.000000 -0.000000 -0.000001 -0.000000 10.614015 1.038138 -1.956090 4.021583 0.276409 1.788151 3.999934 0.286654 1.791305 7.859765 0.849458 -0.228914 -10.171601 -4.685960 -0.716963 0.000001 -0.000001 0.000001 0.000001 -0.000001 0.000001 0.000001 -0.000001 0.000000 0.000001 -0.000001 0.000001 -0.000000 0.000000 0.000000 0.000001 -0.000001 0.000001 -0.000000 0.000000 0.000000 0.000001 -0.000001 0.000001 0.000001 -0.000001 0.000001 0.223515 -21.206382 -13.914982 4.251082 -25.122052 -61.448671 -0.000008 -2.858804 -0.000017 -35.108863 -0.033594 -7.859162 -10.755454 -1.423937 4.532358 11.033180 30.295181 18.043586 0.000004 0.000001 0.000000 0.108750 -0.462940 -12.531508 0.439931 2.229193 -22.324769 0.000000 -0.000001 0.000001 -0.023464 3.193619 -20.639493 0.441148 2.232174 -22.356218 0.000002 0.000003 -0.000004 0.274283 4.146857 -26.084346 0.587747 2.559481 -25.862119 0.000003 0.000002 0.000002 1.176228 6.004984 -32.093983 0.441062 2.231975 -22.354115 -0.000003 -0.000001 0.000003 -0.000001 0.000001 0.000000 1.117723 18.890980 13.868261 11.881749 36.279014 50.231916 -0.000005 11.899513 -0.000011 -37.837001 0.549107 1.820481 -4.386041 1.814038 -6.045498 14.325378 -15.668905 -13.792330 0.000001 -0.000001 -0.000001 0.088935 0.932346 10.896070 0.197538 -1.343336 16.730070 -0.000000 -0.000000 0.000002 -0.132616 -2.156523 14.316101 0.198114 -1.345253 16.754604 -0.000001 0.000000 -0.000002 -0.028702 -2.479089 12.993563 0.287603 -1.612817 20.220642 0.000000 0.000000 0.000003 0.397190 -4.157398 16.593110 0.132897 -1.105749 13.705729 -0.000001 0.000001 0.000001 0.000000 -0.000000 0.000000 0.000002 -0.000000 0.000001 0.000002 -0.000001 0.000000 0.000002 -0.000000 0.000000 0.000002 -0.000000 0.000000 0.000002 -0.000000 0.000001 0.000002 -0.000001 0.000000 0.000002 -0.000000 0.000000 0.000002 -0.000000 0.000000 0.000002 -0.000000 0.000001 0.000002 -0.000001 0.000000 0.000000 -0.000001 0.000000 0.000000 -0.000001 0.000000 0.000000 -0.000001 0.000000 
2.171452 70.693878 -1.874432 -1.049182 -16.591096 -1.691836 0.000000 -0.000000 0.000000 -11.947454 15.540292 6.152542 12.245935 8.677316 5.690935 1.001206 5.436017 -6.974150 0.000000 0.000001 -0.000000 0.000000 -0.000000 0.000001 -8.824612 -8.367904 -1.083154 15.298335 0.067431 -1.279814 -6.229319 -1.440864 2.394362 -0.000000 0.000001 -0.000000 0.000000 -0.000000 -0.000001 10.026025 0.876401 -1.963654 3.782808 0.239282 1.773757 3.760776 0.253805 1.776397 7.899416 0.832484 -0.276012 -10.275915 -4.592270 -1.032733 -0.000000 0.000000 -0.000000 -0.000000 0.000000 -0.000000 -0.000000 0.000000 0.000000 -0.000000 0.000000 0.000000 -0.000000 -0.000001 0.000000 -0.000000 0.000000 0.000000 -0.000000 -0.000001 0.000000 -0.000000 0.000000 -0.000000 -0.000000 0.000000 -0.000000 0.248874 -21.017438 -13.941074 4.126895 -24.821049 -61.888488 0.000005 -2.581763 0.000005 -34.647552 -0.054963 -7.772103 -10.615507 -1.657032 4.449069 10.958668 30.713407 18.147413 0.000004 -0.000000 -0.000001 0.117817 -0.424611 -12.958756 0.456711 2.269593 -22.752327 -0.000001 -0.000000 -0.000002 -0.017090 3.237984 -21.066491 0.457958 2.272582 -22.783991 -0.000001 0.000002 0.000001 0.287796 4.188991 -26.512074 0.607008 2.598787 -26.289955 -0.000004 0.000000 -0.000001 1.201728 6.041607 -32.523459 0.457867 2.272370 -22.781652 -0.000003 0.000000 0.000003 -0.000001 -0.000001 -0.000000 1.076829 18.429956 14.151070 12.423435 35.742206 50.529866 -0.000002 12.005245 -0.000007 -37.880472 0.614641 2.035668 -3.956976 1.799728 -5.176349 14.319077 -15.700670 -13.790461 -0.000000 -0.000001 0.000001 0.086058 0.947211 10.704619 0.196070 -1.338430 16.667183 -0.000002 -0.000001 -0.000002 -0.132470 -2.151203 14.253291 0.196642 -1.340348 16.691676 0.000001 -0.000001 0.000003 -0.028218 -2.490383 13.129955 0.286053 -1.608601 20.165420 -0.000001 -0.000002 -0.000003 0.403925 -4.172770 16.797730 0.133475 -1.108133 13.735889 -0.000001 0.000000 0.000002 -0.000002 -0.000000 -0.000001 0.000002 -0.000001 0.000001 0.000001 -0.000001 0.000000 0.000002 -0.000001 0.000001 0.000002 -0.000001 0.000001 0.000002 -0.000001 0.000001 0.000001 -0.000001 0.000000 0.000002 -0.000001 0.000001 0.000002 -0.000001 0.000001 0.000002 -0.000001 0.000001 0.000001 -0.000001 0.000000 0.000000 -0.000000 0.000000 0.000000 -0.000000 0.000000 0.000000 -0.000000 0.000000 
